<svg xmlns="http://www.w3.org/2000/svg" viewBox="0 0 64 64" role="img" aria-labelledby="faviconTitle faviconDesc">
  <title id="faviconTitle">Smart Grade favicon</title>
  <desc id="faviconDesc">Monogramme SG stylise avec un livre et une coche academique.</desc>
  <defs>
    <linearGradient id="bg" x1="8" y1="8" x2="56" y2="56" gradientUnits="userSpaceOnUse">
      <stop offset="0" stop-color="#0f4c81" />
      <stop offset="0.55" stop-color="#2563eb" />
      <stop offset="1" stop-color="#38bdf8" />
    </linearGradient>
    <linearGradient id="glow" x1="18" y1="16" x2="47" y2="49" gradientUnits="userSpaceOnUse">
      <stop offset="0" stop-color="#ffffff" stop-opacity="0.95" />
      <stop offset="1" stop-color="#dbeafe" stop-opacity="0.78" />
    </linearGradient>
  </defs>

  <rect width="64" height="64" rx="18" fill="url(#bg)" />
  <path d="M19 18.5c0-1.38 1.12-2.5 2.5-2.5h21A5.5 5.5 0 0 1 48 21.5v17a1.5 1.5 0 0 1-2.31 1.27A7.27 7.27 0 0 0 42 38.75H24a5 5 0 0 0-3.5 1.43A1.5 1.5 0 0 1 18 39V21a3.5 3.5 0 0 1 1-2.5Z" fill="#0b2540" fill-opacity="0.26" />
  <path d="M21 17h20.5A4.5 4.5 0 0 1 46 21.5V37c-1.15-.5-2.39-.75-3.72-.75H24a6.3 6.3 0 0 0-3 .74V20a3 3 0 0 1 3-3Z" fill="url(#glow)" />
  <path d="M26 24.5h12.5" stroke="#2563eb" stroke-linecap="round" stroke-width="2.4" />
  <path d="M26 30h9.5" stroke="#2563eb" stroke-linecap="round" stroke-width="2.4" opacity="0.82" />
  <path d="M22 42.5c1.86-1.65 4.06-2.48 6.6-2.48h13.63c2.3 0 4.55.78 6.77 2.34" fill="none" stroke="#e0f2fe" stroke-linecap="round" stroke-width="2.5" />
  <path d="m35.6 28.6 3.3 3.28 6.56-7.24" fill="none" stroke="#16a34a" stroke-linecap="round" stroke-linejoin="round" stroke-width="3.4" />
  <path d="M17.5 19.5V43" fill="none" stroke="#e0f2fe" stroke-linecap="round" stroke-width="2" opacity="0.85" />
</svg>
